Coordinates
version=1
nRows=78
nColumns=6
inDegrees=yes

Units are S.I. units (second, meters, Newtons, ...)
If the header above contains a line with 'inDegrees', this indicates whether rotational values are in degrees (yes) or radians (no).

endheader
time	foot_tx	hip_flexion_r	knee_angle_r	ankle_angle_r	lumbar
     94.50000000	      0.29578637	     59.91087229	    -60.06895688	     -4.59732396	    -11.70650861
     94.51000000	      0.29579878	     59.91250283	    -60.07036303	     -4.59678197	    -11.70794947
     94.52000000	      0.29580865	     59.91424376	    -60.07202650	     -4.59603762	    -11.70960674
     94.53000000	      0.29581953	     59.91437011	    -60.07185831	     -4.59567585	    -11.70969769
     94.54000000	      0.29583111	     59.91823193	    -60.07248035	     -4.59651546	    -11.71327513
     94.55000000	      0.29583602	     59.92087894	    -60.07109073	     -4.59772282	    -11.71593027
     94.56000000	      0.29585130	     59.92365689	    -60.06462747	     -4.60280220	    -11.71902555
     94.57000000	      0.29584226	     59.92778942	    -60.06132774	     -4.60485142	    -11.72243758
     94.58000000	      0.29585151	     59.93334179	    -60.04938609	     -4.61382649	    -11.72543696
     94.59000000	      0.29583032	     59.94004263	    -60.04242384	     -4.61839863	    -11.72907483
     94.60000000	      0.29582986	     59.94898714	    -60.02355802	     -4.63139796	    -11.72732445
     94.61000000	      0.29580736	     59.96508944	    -60.00756336	     -4.64238773	    -11.72070695
     94.62000000	      0.29577826	     59.98850291	    -59.99044953	     -4.65435347	    -11.70593534
     94.63000000	      0.29572236	     60.05229739	    -59.98118231	     -4.66287152	    -11.64489798
     94.64000000	      0.29567173	     60.06350002	    -59.96890549	     -4.67031723	    -11.64627269
     94.65000000	      0.29562905	     60.08183201	    -59.95401382	     -4.67976206	    -11.63727444
     94.66000000	      0.29556528	     60.15373626	    -59.95140418	     -4.68365578	    -11.56309277
     94.67000000	      0.29551005	     60.15814590	    -59.94905574	     -4.68267799	    -11.56442116
     94.68000000	      0.29546615	     60.21034860	    -59.95119963	     -4.68254890	    -11.50860492
     94.69000000	      0.29541982	     60.21248117	    -59.95974748	     -4.67357992	    -11.50385802
     94.70000000	      0.29538643	     60.24942956	    -59.97403422	     -4.66407418	    -11.45917304
     94.71000000	      0.29535870	     60.24864731	    -59.99384357	     -4.64817086	    -11.45388611
     94.72000000	      0.29534158	     60.24761746	    -60.01825556	     -4.62943133	    -11.44566191
     94.73000000	      0.29533537	     60.24618453	    -60.04576597	     -4.60909034	    -11.43630791
     94.74000000	      0.29534040	     60.24491108	    -60.07511238	     -4.58823883	    -11.42692907
     94.75000000	      0.29535770	     60.24413125	    -60.10458779	     -4.56821428	    -11.41835342
     94.76000000	      0.29538592	     60.24454053	    -60.13251774	     -4.55002033	    -11.41068624
     94.77000000	      0.29543453	     60.24731768	    -60.15803469	     -4.53601263	    -11.40752381
     94.78000000	      0.29549144	     60.24991282	    -60.17923754	     -4.52478159	    -11.40575150
     94.79000000	      0.29556154	     60.25706632	    -60.19658747	     -4.51840997	    -11.41003551
     94.80000000	      0.29565460	     60.26841822	    -60.20543376	     -4.51981664	    -11.42004448
     94.81000000	      0.29574176	     60.28565794	    -60.21441649	     -4.52218808	    -11.43605668
     94.82000000	      0.29582958	     60.31006720	    -60.22170685	     -4.52702050	    -11.45898920
     94.83000000	      0.29591503	     60.34316578	    -60.22740471	     -4.53409739	    -11.49011419
     94.84000000	      0.29600548	     60.33342961	    -60.22547338	     -4.54394764	    -11.59196569
     94.85000000	      0.29607611	     60.38836893	    -60.22882744	     -4.55413275	    -11.64093814
     94.86000000	      0.29618258	     60.43979679	    -60.21496682	     -4.57658904	    -11.71809388
     94.87000000	      0.29623366	     60.45393546	    -60.21429281	     -4.58521184	    -11.86801872
     94.88000000	      0.29626650	     60.54884349	    -60.21627171	     -4.59565024	    -11.95218173
     94.89000000	      0.29631724	     60.58828607	    -60.20478141	     -4.61042854	    -12.13297204
     94.90000000	      0.29632421	     60.71419120	    -60.20613279	     -4.61890416	    -12.24399818
     94.91000000	      0.29634596	     60.78260487	    -60.19503441	     -4.62977513	    -12.45737539
     94.92000000	      0.29632186	     60.94315097	    -60.19705171	     -4.63335996	    -12.59757702
     94.93000000	      0.29628776	     61.04735458	    -60.19726548	     -4.63058003	    -12.84029579
     94.94000000	      0.29624602	     61.24443956	    -60.19792769	     -4.62950270	    -13.01071952
     94.95000000	      0.29616204	     61.39842425	    -60.20922550	     -4.61263465	    -13.26997190
     94.96000000	      0.29608857	     61.62706366	    -60.21894101	     -4.59786203	    -13.47839710
     94.97000000	      0.29599501	     61.83845132	    -60.23195855	     -4.57398441	    -13.74746443
     94.98000000	      0.29588639	     62.10999679	    -60.25286890	     -4.54354767	    -13.98551579
     94.99000000	      0.29576552	     62.39985329	    -60.27869289	     -4.50557628	    -14.24367679
     95.00000000	      0.29563102	     62.71045980	    -60.30913078	     -4.46024640	    -14.52102033
     95.01000000	      0.29549583	     63.04458777	    -60.34261880	     -4.40951260	    -14.81562376
     95.02000000	      0.29535810	     63.40449460	    -60.37783870	     -4.35424590	    -15.12766303
     95.03000000	      0.29522099	     63.79293087	    -60.41246279	     -4.29634892	    -15.45678646
     95.04000000	      0.29508624	     64.21376732	    -60.44373332	     -4.23797456	    -15.80170515
     95.05000000	      0.29495839	     64.71512864	    -60.46761829	     -4.18517110	    -16.10917472
     95.06000000	      0.29484839	     65.24775715	    -60.47904906	     -4.13868967	    -16.44010782
     95.07000000	      0.29474232	     65.83885767	    -60.47602455	     -4.10053595	    -16.76652816
     95.08000000	      0.29466368	     66.49388590	    -60.44613061	     -4.07986845	    -17.08486411
     95.09000000	      0.29459484	     67.22497940	    -60.39362852	     -4.07375460	    -17.38191564
     95.10000000	      0.29454057	     68.03802300	    -60.30994036	     -4.08719122	    -17.65271303
     95.11000000	      0.29449624	     68.93930560	    -60.19405853	     -4.12010146	    -17.88902557
     95.12000000	      0.29446719	     69.92905054	    -60.04412275	     -4.17264650	    -18.08758332
     95.13000000	      0.29444328	     71.02078731	    -59.86070774	     -4.24306367	    -18.22907651
     95.14000000	      0.29442949	     72.20795686	    -59.64559577	     -4.32811321	    -18.31466811
     95.15000000	      0.29441977	     73.49153596	    -59.40427441	     -4.42191467	    -18.33540028
     95.16000000	      0.29441474	     74.86485584	    -59.14316162	     -4.51782165	    -18.28945906
     95.17000000	      0.29441442	     76.32086645	    -58.87114548	     -4.60747667	    -18.17449941
     95.18000000	      0.29441750	     77.84232700	    -58.59852205	     -4.68128419	    -17.99972295
     95.19000000	      0.29442099	     79.41892426	    -58.33648688	     -4.72947010	    -17.76578021
     95.20000000	      0.29444040	     81.03727724	    -58.09536957	     -4.74468424	    -17.47624933
     95.21000000	      0.29446059	     82.67297883	    -57.88706496	     -4.71586111	    -17.15013478
     95.22000000	      0.29451350	     84.32109880	    -57.71124523	     -4.64445010	    -16.78094056
     95.23000000	      0.29455319	     85.95090332	    -57.59502847	     -4.50999727	    -16.39746509
     95.24000000	      0.29463270	     87.55441754	    -57.52483066	     -4.32404080	    -15.99759623
     95.25000000	      0.29474423	     89.12306339	    -57.50661353	     -4.08296950	    -15.58295888
     95.26000000	      0.29488801	     90.63069720	    -57.54667049	     -3.78440271	    -15.17657954
     95.27000000	      0.29507535	     92.07818815	    -57.64004307	     -3.43409164	    -14.76864129
